<!DOCTYPE svg PUBLIC "-//W3C//DTD SVG 1.1//EN" "http://www.w3.org/Graphics/SVG/1.1/DTD/svg11.dtd">
<!-- Uploaded to: SVG Repo, www.svgrepo.com, Transformed by: SVG Repo Mixer Tools -->
<svg fill="#537D15" height="800px" width="800px" version="1.1" id="Layer_1" xmlns="http://www.w3.org/2000/svg" xmlns:xlink="http://www.w3.org/1999/xlink" viewBox="0 0 512.001 512.001" xml:space="preserve">
<g id="SVGRepo_bgCarrier" stroke-width="0"/>
<g id="SVGRepo_tracerCarrier" stroke-linecap="round" stroke-linejoin="round"/>
<g id="SVGRepo_iconCarrier"> <g> <g> <path d="M264.065,286.428V132.44c8.992-3.297,15.425-11.943,15.425-22.063V23.49C279.49,10.537,268.953,0,256.001,0 s-23.49,10.537-23.49,23.49v86.889c0,10.12,6.433,18.766,15.425,22.063v153.988c-46.737,4.099-83.525,43.43-83.525,91.213v126.295 c0,4.454,3.61,8.064,8.064,8.064h70.94c1.853,0,3.649-0.638,5.086-1.806l12.953-10.529l12.646,10.48 c1.501,1.243,3.326,1.855,5.144,1.855c2.128,0,4.247-0.839,5.825-2.485l14.783-15.427l14.781,15.427 c1.52,1.587,3.624,2.485,5.822,2.485h19.069c4.455,0,8.064-3.611,8.064-8.064V377.641 C347.59,329.858,310.802,290.527,264.065,286.428z M248.64,23.49c0-4.059,3.302-7.361,7.361-7.361s7.361,3.302,7.361,7.361v86.889 c0,4.059-3.302,7.361-7.361,7.361s-7.361-3.302-7.361-7.361V23.49z M256.001,302.181c38.884,0,70.986,29.566,75.025,67.396 H180.977C185.015,331.747,217.116,302.181,256.001,302.181z M331.46,495.871h-7.562v0l-18.222-19.02 c-1.521-1.587-3.625-2.485-5.823-2.485c-2.199,0-4.302,0.898-5.822,2.485l-15.415,16.087l-11.965-9.916 c-2.963-2.455-7.248-2.475-10.233-0.048l-15.867,12.897h-60.011v-82.324H331.46V495.871z M331.461,397.419H180.54v-11.714h150.921 V397.419z"/> </g> </g> </g>
</svg>