<!DOCTYPE svg PUBLIC "-//W3C//DTD SVG 1.1//EN" "http://www.w3.org/Graphics/SVG/1.1/DTD/svg11.dtd">
<!-- Uploaded to: SVG Repo, www.svgrepo.com, Transformed by: SVG Repo Mixer Tools -->
<svg fill="#537D15" height="800px" width="800px" version="1.1" id="Layer_1" xmlns="http://www.w3.org/2000/svg" xmlns:xlink="http://www.w3.org/1999/xlink" viewBox="0 0 512.001 512.001" xml:space="preserve">
<g id="SVGRepo_bgCarrier" stroke-width="0"/>
<g id="SVGRepo_tracerCarrier" stroke-linecap="round" stroke-linejoin="round"/>
<g id="SVGRepo_iconCarrier"> <g> <g> <path d="M504.298,327.004c-4.36-0.116-7.939,3.337-8.04,7.675c-1.008,43.549-37.286,78.978-80.869,78.978H99.391 c0.607-1.115,0.952-2.394,0.952-3.753V396.24c0-15.868-12.909-28.777-28.777-28.777c-17.07,0-30.957,13.888-30.957,30.957 s13.887,30.957,30.957,30.957H415.39c25.409,0,49.402-9.785,67.561-27.551c18.129-17.739,28.437-41.456,29.022-66.783 C512.074,330.704,508.637,327.104,504.298,327.004z M71.565,413.659v-0.001c-8.403,0-15.238-6.836-15.238-15.238 c0-8.403,6.835-15.237,15.238-15.237c7.201,0,13.058,5.857,13.058,13.058v13.666c0,1.359,0.345,2.638,0.952,3.753H71.565z"/> </g> </g> <g> <g> <path d="M423.232,207.838v-23.81c0-0.225-0.016-0.446-0.035-0.668c0.013-0.458,0.035-0.915,0.035-1.373 c0-27.722-22.842-53.246-64.319-71.873c-39.475-17.727-91.786-27.49-147.297-27.49s-107.823,9.763-147.298,27.49 C22.842,128.741,0,154.266,0,181.987c0,0.457,0.022,0.911,0.034,1.367C0.015,183.576,0,183.8,0,184.028v63.2 c0,27.722,22.842,53.246,64.319,71.872c39.475,17.727,91.786,27.49,147.298,27.49c55.511,0,107.822-9.763,147.297-27.49 c41.477-18.627,64.319-44.151,64.319-71.872v-23.603c40.937,3.957,73.049,38.547,73.049,80.504v4.971 c0,4.341,3.519,7.86,7.86,7.86c4.341,0,7.86-3.519,7.86-7.86v-4.971C512,253.497,472.849,211.843,423.232,207.838z M161.725,327.996C78.774,318.298,15.72,285.237,15.72,247.227V220.29c0.074,0.086,0.143,0.172,0.217,0.258 c0.264,0.302,0.554,0.572,0.857,0.828c17.172,19.116,46.865,35.325,86.046,46.16c4.185,1.157,8.513-1.296,9.671-5.48 c1.157-4.184-1.296-8.514-5.48-9.671c-32.88-9.092-58.595-22.173-74.244-37.037c31.834-30.257,102.131-50.222,178.829-50.222 c76.687,0,146.974,19.96,178.815,50.208c-9.544,9.084-22.863,17.548-39.408,24.827c-37.331,16.424-86.839,25.469-139.406,25.469 c-4.211,0-8.393-0.077-12.56-0.192c-0.762-0.246-1.574-0.383-2.418-0.383c-1.265,0-2.514,0.064-3.751,0.172 c-21.191-0.877-41.74-3.232-61.283-7.069c-4.261-0.841-8.39,1.938-9.226,6.199c-0.836,4.26,1.939,8.39,6.199,9.226 c11.868,2.33,24.083,4.135,36.57,5.42c-6.418,7.143-10.318,16.473-10.318,26.677C154.829,313.919,157.373,321.586,161.725,327.996 z M407.512,247.227c0,45.339-89.709,83.644-195.896,83.644c-4.727,0-9.42-0.08-14.076-0.228c-0.297-0.034-0.596-0.056-0.901-0.056 c-14.387,0-26.09-11.172-26.09-24.906c0-12.651,9.935-23.121,22.746-24.694c6.061,0.237,12.169,0.363,18.322,0.363 c54.699,0,106.456-9.518,145.737-26.8c21.785-9.585,38.579-21.085,49.762-33.817c0.059-0.063,0.124-0.121,0.18-0.186 c0.069-0.08,0.133-0.16,0.202-0.24c0.005-0.005,0.01-0.011,0.015-0.017V247.227z M407.427,184.115 c-0.023,0.367-0.05,0.733-0.086,1.099c-0.039,0.403-0.092,0.807-0.145,1.21c-0.762,5.683-2.995,11.35-6.597,16.888 c-35.38-32.985-107.879-53.909-188.983-53.909c-81.117,0-153.629,20.931-189.003,53.925c-2.534-3.902-4.4-7.877-5.542-11.893 c-0.031-0.111-0.063-0.222-0.093-0.334c-0.187-0.682-0.348-1.365-0.494-2.05c-0.048-0.229-0.094-0.458-0.137-0.687 c-0.114-0.594-0.211-1.189-0.293-1.785c-0.042-0.306-0.077-0.613-0.11-0.92c-0.06-0.548-0.111-1.097-0.144-1.645 c-0.041-0.676-0.081-1.352-0.081-2.029c-0.001-45.338,89.708-83.643,195.895-83.643s195.896,38.304,195.896,83.644 C407.512,182.698,407.471,183.406,407.427,184.115z"/> </g> </g> <g> <g> <path d="M234.813,297.821h-8.006c-4.341,0-7.86,3.519-7.86,7.86s3.519,7.86,7.86,7.86h8.006c4.341,0,7.86-3.519,7.86-7.86 S239.153,297.821,234.813,297.821z"/> </g> </g> <g> <g> <path d="M286.205,300.345c-0.712-4.283-4.765-7.174-9.041-6.467l-7.9,1.311c-4.282,0.711-7.178,4.759-6.467,9.041 c0.638,3.846,3.97,6.574,7.745,6.574c0.428,0,0.861-0.035,1.296-0.107l7.9-1.311C284.02,308.675,286.916,304.628,286.205,300.345z "/> </g> </g> <g> <g> <path d="M329.254,289.526c-1.087-4.203-5.38-6.729-9.577-5.64l-7.752,2.006c-4.202,1.088-6.727,5.375-5.64,9.578 c0.917,3.542,4.107,5.893,7.603,5.893c0.652,0,1.314-0.082,1.974-0.253l7.752-2.006 C327.816,298.016,330.342,293.729,329.254,289.526z"/> </g> </g> </g>
</svg>