<!DOCTYPE svg PUBLIC "-//W3C//DTD SVG 1.1//EN" "http://www.w3.org/Graphics/SVG/1.1/DTD/svg11.dtd">
<!-- Uploaded to: SVG Repo, www.svgrepo.com, Transformed by: SVG Repo Mixer Tools -->
<svg fill="#A9BE8A" height="800px" width="800px" version="1.1" id="Layer_1" xmlns="http://www.w3.org/2000/svg" xmlns:xlink="http://www.w3.org/1999/xlink" viewBox="0 0 512.001 512.001" xml:space="preserve">
<g id="SVGRepo_bgCarrier" stroke-width="0"/>
<g id="SVGRepo_tracerCarrier" stroke-linecap="round" stroke-linejoin="round"/>
<g id="SVGRepo_iconCarrier"> <g> <g> <path d="M509.943,416.304c-2.261-9.763-4.333-19.559-6.159-29.117c-0.824-4.316-4.991-7.142-9.306-6.321 c-4.316,0.824-7.145,4.991-6.321,9.307c1.865,9.759,3.979,19.759,6.286,29.72c1.095,4.726,1.649,9.663,1.649,14.676 c0,16.871-6.505,32.707-16.975,41.327c-0.065,0.054-0.129,0.108-0.192,0.162c-0.067,0.051-0.134,0.103-0.199,0.155 c-5.034,4.02-10.724,6.144-16.454,6.144c-5.73,0-11.421-2.124-16.455-6.144c-0.064-0.052-0.129-0.102-0.195-0.152 c-0.065-0.056-0.129-0.111-0.195-0.165c-10.471-8.621-16.975-24.456-16.975-41.327c0-5.011,0.555-9.948,1.649-14.674 c10.837-46.801,16.898-92.29,18.012-135.203c0.055-2.145-0.757-4.22-2.255-5.758c-1.498-1.536-3.552-2.403-5.698-2.403H333.949 v-21.591h95.879c4.393,0,7.955-3.56,7.955-7.955c0-4.394-3.562-7.954-7.955-7.954h-95.879v-22.813h95.879 c4.393,0,7.955-3.56,7.955-7.955c0-4.394-3.562-7.954-7.955-7.954h-95.879v-22.813h95.879c4.393,0,7.955-3.56,7.955-7.955 c0-4.394-3.562-7.954-7.955-7.954h-95.879v-22.813h95.879c4.393,0,7.955-3.56,7.955-7.955c0-4.394-3.562-7.954-7.955-7.954 h-95.879v-22.811h95.879c4.393,0,7.955-3.56,7.955-7.955c0-4.394-3.562-7.955-7.955-7.955h-95.879V61.334h43.978 c4.393,0,7.955-3.56,7.955-7.954c0-4.394-3.562-7.955-7.955-7.955h-43.978V29.644h105.224c20.427,0,37.046,16.619,37.046,37.046 v203.188c0,30.218,2.488,61.811,7.394,93.901c0.664,4.342,4.723,7.321,9.066,6.661c4.342-0.664,7.325-4.723,6.661-9.066 c-4.785-31.297-7.211-62.08-7.211-91.496V66.69c0-29.199-23.755-52.955-52.955-52.955h-113.18c-4.393,0-7.955,3.561-7.955,7.954 v262.796c0,4.394,3.562,7.955,7.955,7.955h105.943c-1.602,39.443-7.425,81.068-17.336,123.865 c-1.367,5.902-2.06,12.046-2.06,18.264c0,21.015,7.889,40.372,21.2,52.26c0.889,1.336,2.17,2.388,3.68,2.991 c7.522,5.532,16.074,8.446,24.849,8.446c8.773,0,17.326-2.913,24.848-8.446c1.51-0.602,2.792-1.655,3.681-2.991 c13.31-11.888,21.2-31.246,21.2-52.26C512.002,428.351,511.309,422.207,509.943,416.304z"/> </g> </g> <g> <g> <path d="M429.827,45.425h-25.844c-4.393,0-7.955,3.56-7.955,7.955c0,4.394,3.562,7.954,7.955,7.954h25.844 c4.393,0,7.954-3.56,7.954-7.954C437.782,48.985,434.22,45.425,429.827,45.425z"/> </g> </g> <g> <g> <path d="M274.087,379.241c-25.9,0-46.971,21.071-46.971,46.971c0.001,25.9,21.071,46.97,46.971,46.97 c25.899,0,46.97-21.07,46.97-46.97S299.986,379.241,274.087,379.241z M274.087,457.272c-17.128,0-31.062-13.934-31.062-31.061 c0.001-17.129,13.934-31.062,31.062-31.062c17.127,0,31.061,13.934,31.061,31.062 C305.148,443.338,291.214,457.272,274.087,457.272z"/> </g> </g> <g> <g> <path d="M350.492,423.486c-1.334-38.304-32.302-70.589-70.499-73.504c-6.734-0.511-13.48-0.145-20.075,1.093l-9.478-1.548 c-12.289-2.008-23.791-7.924-32.582-16.724l-6.455-20.854L258.562,53.45c2.836-15.547-2.772-31.692-14.637-42.133 c-2.025-1.782-4.812-2.418-7.411-1.684c-2.596,0.731-4.644,2.727-5.442,5.304l-55.8,180.278L119.472,14.939 c-0.798-2.577-2.847-4.574-5.442-5.304c-2.596-0.733-5.386-0.098-7.411,1.684C94.754,21.76,89.145,37.904,91.981,53.451 l17.419,95.485c0.789,4.322,4.932,7.185,9.254,6.398c4.322-0.788,7.186-4.931,6.398-9.253l-17.419-95.485 c-0.963-5.276-0.426-10.66,1.406-15.563l58.634,189.435c0,0,0,0,0,0.001l27.956,90.323c0,0.001,0.001,0.002,0.001,0.003 l7.592,24.528c0.357,1.155,0.974,2.213,1.802,3.095c11.319,12.044,26.537,20.145,42.85,22.811l10.565,1.725 c1.04,0.213,2.133,0.222,3.22-0.006c5.606-1.171,11.366-1.543,17.122-1.102c29.734,2.269,54.771,28.374,55.811,58.193 c0.579,16.602-5.44,32.308-16.951,44.227c-11.516,11.923-26.984,18.492-43.557,18.492c-27.513,0-51.595-18.565-58.564-45.145 c-0.057-0.218-0.124-0.434-0.198-0.645l-27.621-117.543c-0.605-2.573-2.448-4.677-4.918-5.616l-4.678-1.778 c-0.003-0.001-0.006-0.003-0.01-0.004l-21.015-7.985l-2.67-1.014l-24.603-134.871c-0.789-4.322-4.933-7.188-9.254-6.398 c-4.322,0.788-7.186,4.931-6.398,9.253l24.982,136.941l-6.455,20.852c-8.79,8.8-20.292,14.716-32.582,16.724l-9.479,1.548 c-6.587-1.236-13.363-1.605-20.076-1.094c-38.196,2.915-69.163,35.2-70.5,73.502c-0.731,20.954,6.872,40.782,21.406,55.833 c14.541,15.056,34.073,23.349,55.001,23.349c34.379,0,64.52-22.962,73.672-55.975c0.143-0.359,0.261-0.733,0.351-1.12 l24.793-105.503l24.793,105.503c0.09,0.385,0.209,0.759,0.351,1.119c9.152,33.014,39.292,55.977,73.671,55.977 c20.927,0,40.46-8.292,55.001-23.349C343.62,464.268,351.222,444.439,350.492,423.486z M201.229,279.077l-17.63-56.961 l57.907-187.082c1.833,4.902,2.368,10.285,1.406,15.562L201.229,279.077z M135.219,440.968c-0.074,0.21-0.141,0.425-0.198,0.645 c-6.969,26.58-31.051,45.143-58.564,45.143c-16.572,0-32.041-6.566-43.557-18.492c-11.509-11.918-17.529-27.624-16.949-44.226 c1.04-29.819,26.077-55.924,55.811-58.193c1.559-0.119,3.138-0.179,4.694-0.179c4.169,0,8.351,0.431,12.428,1.281 c1.084,0.226,2.171,0.218,3.205,0.01l10.581-1.728c16.313-2.666,31.531-10.766,42.85-22.811c0.828-0.88,1.445-1.94,1.802-3.095 l4.977-16.081l4.199,1.595l5.518,2.097L135.219,440.968z"/> </g> </g> <g> <g> <path d="M76.456,379.241c-25.9,0-46.971,21.071-46.971,46.971c0,25.9,21.071,46.97,46.971,46.97c25.9,0,46.971-21.07,46.971-46.97 S102.356,379.241,76.456,379.241z M76.456,457.272c-17.128,0-31.062-13.934-31.062-31.061c0-17.129,13.934-31.062,31.062-31.062 c17.128,0,31.062,13.934,31.062,31.062C107.518,443.338,93.584,457.272,76.456,457.272z"/> </g> </g> </g>
</svg>